<svg xmlns="http://www.w3.org/2000/svg" width="50" height="50" viewBox="0 0 50 50">
  <path id="Icon_awesome-envelope-square" data-name="Icon awesome-envelope-square" d="M44.643,2.25H5.357A5.357,5.357,0,0,0,0,7.607V46.893A5.357,5.357,0,0,0,5.357,52.25H44.643A5.357,5.357,0,0,0,50,46.893V7.607A5.357,5.357,0,0,0,44.643,2.25ZM19.879,27.931C9.758,20.586,9.861,20.567,7.143,18.452V15.643a2.679,2.679,0,0,1,2.679-2.679H40.179a2.679,2.679,0,0,1,2.679,2.679v2.809c-2.72,2.117-2.615,2.134-12.736,9.48-1.172.854-3.5,2.915-5.121,2.89C23.381,30.846,21.053,28.787,19.879,27.931Zm22.978-4.947V38.857a2.679,2.679,0,0,1-2.679,2.679H9.821a2.679,2.679,0,0,1-2.679-2.679V22.984c1.558,1.2,3.72,2.817,10.636,7.836,1.581,1.154,4.238,3.588,7.22,3.573,3,.015,5.7-2.46,7.223-3.574,6.915-5.018,9.076-6.63,10.634-7.835Z" transform="translate(0 -2.25)" fill="#c3d3d0"/>
</svg>
