<svg xmlns="http://www.w3.org/2000/svg" width="50" height="50" viewBox="0 0 50 50">
  <path id="Icon_awesome-github" data-name="Icon awesome-github" d="M16.724,40.822c0,.207-.232.372-.524.372-.333.031-.565-.134-.565-.372,0-.207.232-.372.524-.372C16.462,40.419,16.724,40.585,16.724,40.822Zm-3.135-.465c-.071.207.131.445.433.507a.468.468,0,0,0,.625-.207c.06-.207-.131-.445-.433-.538A.512.512,0,0,0,13.589,40.357Zm4.456-.176c-.292.072-.494.269-.464.507.03.207.292.341.595.269s.494-.269.464-.476S18.337,40.15,18.044,40.181ZM24.677.563C10.7.563,0,11.449,0,25.79A25.883,25.883,0,0,0,17.087,50.52c1.29.238,1.744-.579,1.744-1.251,0-.641-.03-4.177-.03-6.348,0,0-7.056,1.551-8.538-3.081,0,0-1.149-3.009-2.8-3.784,0,0-2.308-1.623.161-1.592a5.3,5.3,0,0,1,3.891,2.667c2.208,3.991,5.907,2.843,7.349,2.161a5.8,5.8,0,0,1,1.613-3.484C14.839,35.167,9.153,34.33,9.153,24.383a7.939,7.939,0,0,1,2.379-6.09,10,10,0,0,1,.262-7.02c2.107-.672,6.956,2.792,6.956,2.792a23.241,23.241,0,0,1,12.661,0s4.849-3.474,6.956-2.792a10,10,0,0,1,.262,7.02c1.613,1.83,2.6,3.257,2.6,6.09,0,9.977-5.937,10.773-11.573,11.425a6.2,6.2,0,0,1,1.714,4.8c0,3.484-.03,7.8-.03,8.643,0,.672.464,1.489,1.744,1.251C43.165,47.067,50,37.255,50,25.79A25.02,25.02,0,0,0,24.677.563ZM9.8,36.222c-.131.1-.1.341.071.538.161.165.393.238.524.1.131-.1.1-.341-.071-.538C10.161,36.16,9.929,36.087,9.8,36.222ZM8.71,35.384c-.071.134.03.3.232.4a.3.3,0,0,0,.433-.072c.071-.134-.03-.3-.232-.4C8.942,35.25,8.78,35.281,8.71,35.384Zm3.266,3.681c-.161.134-.1.445.131.641.232.238.524.269.655.1.131-.134.071-.445-.131-.641C12.409,38.93,12.107,38.9,11.976,39.065Zm-1.149-1.52c-.161.1-.161.372,0,.61s.433.341.565.238a.48.48,0,0,0,0-.641C11.25,37.514,10.988,37.411,10.827,37.545Z" transform="translate(0 -0.563)" fill="#c3d3d0"/>
</svg>
